<svg xmlns="http://www.w3.org/2000/svg" viewBox="0 0 770.59 205.14"><defs><style>.cls-1{fill:#fff;}</style></defs><title>pagina web</title><g id="breezekool"><path class="cls-1" d="M125.71,137.47h8.77a17,17,0,0,1,3.37.35A9.24,9.24,0,0,1,140.9,139a6.65,6.65,0,0,1,2.2,2.3A7.13,7.13,0,0,1,144,145a6.16,6.16,0,0,1-1.42,4,6.64,6.64,0,0,1-3.8,2.27v.08a7.75,7.75,0,0,1,4.75,2.22,6.93,6.93,0,0,1,1.89,5.13,7.23,7.23,0,0,1-3,5.93,10.57,10.57,0,0,1-3.44,1.64,16.87,16.87,0,0,1-4.56.58h-8.71Zm3,12.88h6a9.6,9.6,0,0,0,2.18-.25,6.24,6.24,0,0,0,2-.85,4.53,4.53,0,0,0,1.47-1.6,4.88,4.88,0,0,0,.56-2.45,4.67,4.67,0,0,0-.56-2.39,4.56,4.56,0,0,0-1.52-1.6,6.15,6.15,0,0,0-2.24-.89,12.66,12.66,0,0,0-2.74-.28h-5.19Zm0,14h5.56a14.82,14.82,0,0,0,3.1-.31,7.88,7.88,0,0,0,2.57-1,5.2,5.2,0,0,0,1.77-1.78,5.07,5.07,0,0,0,.66-2.64,5,5,0,0,0-2-4.35,9.44,9.44,0,0,0-5.59-1.43h-6.1Z"/><path class="cls-1" d="M155.42,140a1.88,1.88,0,0,1-.62,1.44,2,2,0,0,1-2.74,0,1.86,1.86,0,0,1-.63-1.44,1.82,1.82,0,0,1,.63-1.43,2,2,0,0,1,2.74,0A1.85,1.85,0,0,1,155.42,140Zm-.58,26.93H152V147.44h2.83Z"/><path class="cls-1" d="M181.68,157.16a10.7,10.7,0,0,1-.76,4.08,10.11,10.11,0,0,1-2.14,3.24,9.76,9.76,0,0,1-3.29,2.14,11.7,11.7,0,0,1-8.35,0,9.6,9.6,0,0,1-5.42-5.38,11.17,11.17,0,0,1,0-8.15,9.6,9.6,0,0,1,5.42-5.38,11.7,11.7,0,0,1,8.35,0,9.76,9.76,0,0,1,3.29,2.14,10,10,0,0,1,2.14,3.24A10.68,10.68,0,0,1,181.68,157.16Zm-3,0a8.8,8.8,0,0,0-.52-3,7.21,7.21,0,0,0-1.47-2.49,7,7,0,0,0-2.33-1.69,7.42,7.42,0,0,0-3.07-.62,7.3,7.3,0,0,0-3.06.62,7,7,0,0,0-2.3,1.69,7.39,7.39,0,0,0-1.48,2.49,9.23,9.23,0,0,0,0,6.11,7.49,7.49,0,0,0,1.48,2.49,6.63,6.63,0,0,0,2.3,1.66,7.3,7.3,0,0,0,3.06.61,7.41,7.41,0,0,0,3.07-.61,6.65,6.65,0,0,0,2.33-1.66,7.3,7.3,0,0,0,1.47-2.49A8.82,8.82,0,0,0,178.69,157.16Z"/><path class="cls-1" d="M201.75,151.89A5.29,5.29,0,0,0,199.7,150a6,6,0,0,0-2.93-.73,7.62,7.62,0,0,0-3.08.6,7,7,0,0,0-2.34,1.66,7.26,7.26,0,0,0-1.5,2.5,9,9,0,0,0-.52,3.09,8.77,8.77,0,0,0,.52,3.08,7.65,7.65,0,0,0,1.47,2.47,6.74,6.74,0,0,0,2.33,1.66,7.43,7.43,0,0,0,3.08.61,6.46,6.46,0,0,0,3.15-.71,6.38,6.38,0,0,0,2.12-1.83l2.12,1.58a9.23,9.23,0,0,1-3.05,2.45,9.52,9.52,0,0,1-4.34.92,11.41,11.41,0,0,1-4.28-.77,9.57,9.57,0,0,1-3.27-2.14,9.82,9.82,0,0,1-2.09-3.24,11.45,11.45,0,0,1,0-8.15,9.72,9.72,0,0,1,2.09-3.24,9.57,9.57,0,0,1,3.27-2.14,11.41,11.41,0,0,1,4.28-.77,10.23,10.23,0,0,1,4,.85,7.82,7.82,0,0,1,3.27,2.52Z"/><path class="cls-1" d="M211.44,166.89h-2.83V135.47h2.83Z"/><path class="cls-1" d="M222.45,140a1.86,1.86,0,0,1-.63,1.44,2,2,0,0,1-2.74,0,1.88,1.88,0,0,1-.62-1.44,1.85,1.85,0,0,1,.62-1.43,2,2,0,0,1,2.74,0A1.82,1.82,0,0,1,222.45,140Zm-.59,26.93H219V147.44h2.82Z"/><path class="cls-1" d="M234.73,148a7.25,7.25,0,0,1,3.84-1.06,8.62,8.62,0,0,1,1.64.17,5.14,5.14,0,0,1,1.66.64,6.11,6.11,0,0,1,1.5,1.27,7.07,7.07,0,0,1,1.18,2,7.34,7.34,0,0,1,2.73-3.06,7.71,7.71,0,0,1,4.09-1.06,6.88,6.88,0,0,1,5.55,2.2,8.77,8.77,0,0,1,1.84,5.82v11.93h-2.82V156.13a9.45,9.45,0,0,0-1.14-4.95,4.2,4.2,0,0,0-3.89-1.87,4.78,4.78,0,0,0-4.3,2.26,7.27,7.27,0,0,0-.93,2.31,11.72,11.72,0,0,0-.29,2.66v10.35h-2.83V155.55a14.48,14.48,0,0,0-.21-2.58,5.34,5.34,0,0,0-.73-2,3.33,3.33,0,0,0-1.43-1.24,5.41,5.41,0,0,0-2.33-.44,4.81,4.81,0,0,0-2,.46,5.25,5.25,0,0,0-1.83,1.39,7.06,7.06,0,0,0-1.31,2.37,10.33,10.33,0,0,0-.5,3.38v10h-2.82V151.72c0-.52,0-1.2,0-2s-.07-1.57-.13-2.24h2.7c.06.53.1,1.11.13,1.75s0,1.16,0,1.57h.08A6.71,6.71,0,0,1,234.73,148Z"/><path class="cls-1" d="M278.34,154.3a4.89,4.89,0,0,0-1.33-3.75,5.47,5.47,0,0,0-3.87-1.24,8.46,8.46,0,0,0-3.24.62,7.64,7.64,0,0,0-2.53,1.67l-1.58-1.87a9.27,9.27,0,0,1,3.17-2,12.11,12.11,0,0,1,4.47-.79,9.7,9.7,0,0,1,2.95.44,6.94,6.94,0,0,1,2.41,1.31,5.82,5.82,0,0,1,1.62,2.2A7.72,7.72,0,0,1,281,154v8.52c0,.74,0,1.52.09,2.32a15.55,15.55,0,0,0,.25,2h-2.54c-.08-.47-.15-1-.2-1.54a14.93,14.93,0,0,1-.09-1.62h-.08a8.29,8.29,0,0,1-3,2.81,9.45,9.45,0,0,1-6.36.53,6.14,6.14,0,0,1-2.16-1,5.75,5.75,0,0,1-1.62-1.83,5.46,5.46,0,0,1-.65-2.75,5.21,5.21,0,0,1,1.15-3.57,6.89,6.89,0,0,1,3.05-2,17.76,17.76,0,0,1,4.38-.83c1.65-.13,3.36-.19,5.14-.19Zm-.84,2.86q-1.74,0-3.51.15a15.6,15.6,0,0,0-3.2.58,6.15,6.15,0,0,0-2.35,1.27,2.86,2.86,0,0,0-.91,2.2,3.48,3.48,0,0,0,.4,1.75,3.14,3.14,0,0,0,1.06,1.14,4.38,4.38,0,0,0,1.47.62,7,7,0,0,0,1.64.19,6.38,6.38,0,0,0,2.66-.52,5.63,5.63,0,0,0,1.95-1.41,6.26,6.26,0,0,0,1.21-2.06,7.13,7.13,0,0,0,.42-2.45v-1.46Z"/><path class="cls-1" d="M296.62,149.81h-5.49v11.34a6.41,6.41,0,0,0,.21,1.79A2.47,2.47,0,0,0,292,164a2.08,2.08,0,0,0,.93.54,4.34,4.34,0,0,0,1.16.15,5,5,0,0,0,1.23-.17,5.58,5.58,0,0,0,1.22-.46l.13,2.46a9,9,0,0,1-1.56.43,9.7,9.7,0,0,1-1.76.15,7.14,7.14,0,0,1-1.67-.21,4.22,4.22,0,0,1-1.62-.79,4.29,4.29,0,0,1-1.22-1.58,6.07,6.07,0,0,1-.48-2.62V149.81h-4v-2.37h4V142h2.82v5.48h5.49Z"/><path class="cls-1" d="M304.47,140a1.88,1.88,0,0,1-.62,1.44,2,2,0,0,1-1.37.56,2,2,0,0,1-1.37-.56,1.86,1.86,0,0,1-.63-1.44,1.82,1.82,0,0,1,.63-1.43,2,2,0,0,1,1.37-.56,2,2,0,0,1,1.37.56A1.85,1.85,0,0,1,304.47,140Zm-.58,26.93h-2.83V147.44h2.83Z"/><path class="cls-1" d="M324.34,149.43l-11.64,15h12.05v2.45H309v-2l11.59-15.08h-11v-2.37h14.8Z"/><path class="cls-1" d="M342,154.3a4.89,4.89,0,0,0-1.33-3.75,5.47,5.47,0,0,0-3.87-1.24,8.46,8.46,0,0,0-3.24.62,7.64,7.64,0,0,0-2.53,1.67l-1.58-1.87a9.27,9.27,0,0,1,3.17-2,12.11,12.11,0,0,1,4.47-.79,9.7,9.7,0,0,1,2.95.44,6.94,6.94,0,0,1,2.41,1.31,5.93,5.93,0,0,1,1.62,2.2,7.72,7.72,0,0,1,.59,3.12v8.52c0,.74,0,1.52.08,2.32a15.55,15.55,0,0,0,.25,2h-2.54c-.08-.47-.15-1-.21-1.54s-.08-1.09-.08-1.62h-.08a8.23,8.23,0,0,1-3,2.81,9.42,9.42,0,0,1-6.35.53,6.14,6.14,0,0,1-2.16-1,5.75,5.75,0,0,1-1.62-1.83,5.46,5.46,0,0,1-.65-2.75,5.21,5.21,0,0,1,1.15-3.57,6.89,6.89,0,0,1,3-2,17.76,17.76,0,0,1,4.38-.83c1.65-.13,3.36-.19,5.14-.19Zm-.84,2.86q-1.74,0-3.51.15a15.6,15.6,0,0,0-3.2.58,6,6,0,0,0-2.34,1.27,2.83,2.83,0,0,0-.92,2.2,3.48,3.48,0,0,0,.4,1.75,3.14,3.14,0,0,0,1.06,1.14,4.38,4.38,0,0,0,1.47.62,7,7,0,0,0,1.64.19,6.38,6.38,0,0,0,2.66-.52,5.76,5.76,0,0,0,2-1.41,6.41,6.41,0,0,0,1.2-2.06,7.13,7.13,0,0,0,.42-2.45v-1.46Z"/><path class="cls-1" d="M368,163.6a8,8,0,0,1-3.24,2.83,9.38,9.38,0,0,1-4.11,1,10.61,10.61,0,0,1-4.14-.79,9.5,9.5,0,0,1-3.15-2.16,9.69,9.69,0,0,1-2-3.24,11.52,11.52,0,0,1,0-8.07,9.69,9.69,0,0,1,2-3.24,9.5,9.5,0,0,1,3.15-2.16,10.61,10.61,0,0,1,4.14-.79,9.26,9.26,0,0,1,4.11,1,8,8,0,0,1,3.24,2.89h.09V135.47h2.82v31.42h-2.82V163.6Zm-14.41-6.44a9.3,9.3,0,0,0,.49,3.06,7.24,7.24,0,0,0,1.44,2.49,6.45,6.45,0,0,0,2.3,1.66,7.55,7.55,0,0,0,3.12.61,7.39,7.39,0,0,0,5.36-2.25,7.54,7.54,0,0,0,1.56-2.47,8.83,8.83,0,0,0,0-6.19,7.89,7.89,0,0,0-1.56-2.5,7.14,7.14,0,0,0-2.37-1.66,7.36,7.36,0,0,0-3-.6,7.55,7.55,0,0,0-3.12.62,6.77,6.77,0,0,0-2.3,1.69,7.14,7.14,0,0,0-1.44,2.49A9.29,9.29,0,0,0,353.55,157.16Z"/><path class="cls-1" d="M397.76,157.16a10.7,10.7,0,0,1-.77,4.08,10,10,0,0,1-2.14,3.24,9.71,9.71,0,0,1-3.28,2.14,11.25,11.25,0,0,1-4.2.77,11.11,11.11,0,0,1-4.16-.77,9.71,9.71,0,0,1-3.28-2.14,10,10,0,0,1-2.14-3.24,11.17,11.17,0,0,1,0-8.15,9.84,9.84,0,0,1,2.14-3.24,9.71,9.71,0,0,1,3.28-2.14,11.11,11.11,0,0,1,4.16-.77,11.25,11.25,0,0,1,4.2.77,9.71,9.71,0,0,1,3.28,2.14,9.84,9.84,0,0,1,2.14,3.24A10.69,10.69,0,0,1,397.76,157.16Zm-3,0a9,9,0,0,0-.52-3,7.39,7.39,0,0,0-1.48-2.49,7,7,0,0,0-2.33-1.69,7.89,7.89,0,0,0-6.13,0,7.08,7.08,0,0,0-2.3,1.69,7.39,7.39,0,0,0-1.48,2.49,9.41,9.41,0,0,0,0,6.11,7.49,7.49,0,0,0,1.48,2.49,6.72,6.72,0,0,0,2.3,1.66,8,8,0,0,0,6.13,0,6.65,6.65,0,0,0,2.33-1.66,7.49,7.49,0,0,0,1.48-2.49A9.06,9.06,0,0,0,394.77,157.16Z"/><path class="cls-1" d="M403.78,149.68c0-.83-.07-1.57-.12-2.24h2.7c.05.53.1,1.11.12,1.75s0,1.16,0,1.57h.08A6.74,6.74,0,0,1,409.1,148a6.88,6.88,0,0,1,3.74-1.06c.36,0,.69,0,1,0a5.8,5.8,0,0,1,.89.17l-.37,2.7a6.71,6.71,0,0,0-.83-.17,9.2,9.2,0,0,0-1.17-.08,5.69,5.69,0,0,0-2.16.42,4.68,4.68,0,0,0-1.81,1.3,7.06,7.06,0,0,0-1.24,2.28,10.29,10.29,0,0,0-.48,3.34v9.95h-2.83V151.72C403.82,151.2,403.81,150.52,403.78,149.68Z"/><path class="cls-1" d="M441.43,154.3a4.89,4.89,0,0,0-1.33-3.75,5.47,5.47,0,0,0-3.87-1.24,8.46,8.46,0,0,0-3.24.62,7.75,7.75,0,0,0-2.53,1.67l-1.58-1.87a9.22,9.22,0,0,1,3.18-2,12,12,0,0,1,4.46-.79,9.65,9.65,0,0,1,3,.44,7.08,7.08,0,0,1,2.42,1.31,5.93,5.93,0,0,1,1.62,2.2,7.89,7.89,0,0,1,.58,3.12v8.52c0,.74,0,1.52.08,2.32a17.47,17.47,0,0,0,.25,2h-2.53a15.53,15.53,0,0,1-.21-1.54,14.93,14.93,0,0,1-.09-1.62h-.08a8.29,8.29,0,0,1-3,2.81,9.45,9.45,0,0,1-6.36.53,6.14,6.14,0,0,1-2.16-1,5.75,5.75,0,0,1-1.62-1.83,5.46,5.46,0,0,1-.64-2.75,5.26,5.26,0,0,1,1.14-3.57,6.89,6.89,0,0,1,3.05-2,17.85,17.85,0,0,1,4.39-.83c1.64-.13,3.35-.19,5.13-.19Zm-.83,2.86q-1.75,0-3.51.15a15.48,15.48,0,0,0-3.2.58,6.08,6.08,0,0,0-2.35,1.27,2.83,2.83,0,0,0-.92,2.2,3.48,3.48,0,0,0,.4,1.75,3.22,3.22,0,0,0,1.06,1.14,4.38,4.38,0,0,0,1.47.62,7,7,0,0,0,1.64.19,6.38,6.38,0,0,0,2.66-.52,5.76,5.76,0,0,0,2-1.41,6.41,6.41,0,0,0,1.2-2.06,7.13,7.13,0,0,0,.42-2.45v-1.46Z"/><path class="cls-1" d="M467.36,163.6a8,8,0,0,1-3.24,2.83,9.39,9.39,0,0,1-4.12,1,10.52,10.52,0,0,1-4.13-.79,9.54,9.54,0,0,1-3.16-2.16,9.83,9.83,0,0,1-2-3.24,11.52,11.52,0,0,1,0-8.07,9.83,9.83,0,0,1,2-3.24,9.54,9.54,0,0,1,3.16-2.16,10.52,10.52,0,0,1,4.13-.79,9.27,9.27,0,0,1,4.12,1,8,8,0,0,1,3.24,2.89h.08V135.47h2.83v31.42h-2.83V163.6Zm-14.42-6.44a9.31,9.31,0,0,0,.5,3.06,7.38,7.38,0,0,0,1.43,2.49,6.4,6.4,0,0,0,2.31,1.66,7.51,7.51,0,0,0,3.11.61,7.31,7.31,0,0,0,6.92-4.72,8.69,8.69,0,0,0,0-6.19,7.55,7.55,0,0,0-1.56-2.5,7.14,7.14,0,0,0-2.37-1.66,7.36,7.36,0,0,0-3-.6,7.51,7.51,0,0,0-3.11.62,6.72,6.72,0,0,0-2.31,1.69,7.28,7.28,0,0,0-1.43,2.49A9.29,9.29,0,0,0,452.94,157.16Z"/><path class="cls-1" d="M481.28,140a1.86,1.86,0,0,1-.63,1.44,2,2,0,0,1-2.74,0,1.88,1.88,0,0,1-.62-1.44,1.85,1.85,0,0,1,.62-1.43,2,2,0,0,1,2.74,0A1.82,1.82,0,0,1,481.28,140Zm-.59,26.93h-2.82V147.44h2.82Z"/><path class="cls-1" d="M500.48,154.3a4.89,4.89,0,0,0-1.33-3.75,5.47,5.47,0,0,0-3.87-1.24,8.46,8.46,0,0,0-3.24.62,7.64,7.64,0,0,0-2.53,1.67l-1.58-1.87a9.27,9.27,0,0,1,3.17-2,12.11,12.11,0,0,1,4.47-.79,9.7,9.7,0,0,1,2.95.44,6.94,6.94,0,0,1,2.41,1.31,5.93,5.93,0,0,1,1.62,2.2,7.72,7.72,0,0,1,.58,3.12v8.52c0,.74,0,1.52.09,2.32a14,14,0,0,0,.25,2h-2.54c-.08-.47-.15-1-.2-1.54a14.93,14.93,0,0,1-.09-1.62h-.08a8.29,8.29,0,0,1-3,2.81,9.45,9.45,0,0,1-6.36.53,6.14,6.14,0,0,1-2.16-1,5.75,5.75,0,0,1-1.62-1.83,5.46,5.46,0,0,1-.65-2.75,5.21,5.21,0,0,1,1.15-3.57,6.89,6.89,0,0,1,3-2,17.67,17.67,0,0,1,4.38-.83c1.65-.13,3.36-.19,5.14-.19Zm-.84,2.86q-1.74,0-3.51.15a15.73,15.73,0,0,0-3.2.58,6.15,6.15,0,0,0-2.35,1.27,2.86,2.86,0,0,0-.91,2.2,3.48,3.48,0,0,0,.4,1.75,3.14,3.14,0,0,0,1.06,1.14,4.38,4.38,0,0,0,1.47.62,7,7,0,0,0,1.64.19,6.41,6.41,0,0,0,2.66-.52,5.63,5.63,0,0,0,2-1.41,6.26,6.26,0,0,0,1.21-2.06,7.13,7.13,0,0,0,.42-2.45v-1.46Z"/><path class="cls-1" d="M513.32,163.6v3.29h-2.83V135.47h2.83v15.34h.08a8,8,0,0,1,3.24-2.89,9.26,9.26,0,0,1,4.11-1,10.61,10.61,0,0,1,4.14.79,9.65,9.65,0,0,1,3.16,2.16,9.83,9.83,0,0,1,2,3.24,11.52,11.52,0,0,1,0,8.07,9.83,9.83,0,0,1-2,3.24,9.65,9.65,0,0,1-3.16,2.16,10.61,10.61,0,0,1-4.14.79,9.38,9.38,0,0,1-4.11-1,8,8,0,0,1-3.24-2.83Zm14.5-6.44a9.29,9.29,0,0,0-.5-3,7.28,7.28,0,0,0-1.43-2.49,6.91,6.91,0,0,0-2.31-1.69,7.59,7.59,0,0,0-3.12-.62,7.36,7.36,0,0,0-3,.6,7.24,7.24,0,0,0-2.37,1.66,7.89,7.89,0,0,0-1.56,2.5,8.83,8.83,0,0,0,0,6.19,7.54,7.54,0,0,0,1.56,2.47,7.34,7.34,0,0,0,2.37,1.64,7.2,7.2,0,0,0,3,.61,7.59,7.59,0,0,0,3.12-.61,6.57,6.57,0,0,0,2.31-1.66,7.38,7.38,0,0,0,1.43-2.49A9.31,9.31,0,0,0,527.82,157.16Z"/><path class="cls-1" d="M549.13,154.3a4.86,4.86,0,0,0-1.33-3.75,5.43,5.43,0,0,0-3.86-1.24,8.42,8.42,0,0,0-3.24.62,7.79,7.79,0,0,0-2.54,1.67l-1.57-1.87a9.27,9.27,0,0,1,3.17-2,12.11,12.11,0,0,1,4.47-.79,9.7,9.7,0,0,1,2.95.44,7,7,0,0,1,2.41,1.31,5.93,5.93,0,0,1,1.62,2.2,7.72,7.72,0,0,1,.58,3.12v8.52c0,.74,0,1.52.09,2.32a14,14,0,0,0,.25,2h-2.54c-.08-.47-.15-1-.21-1.54s-.08-1.09-.08-1.62h-.08a8.23,8.23,0,0,1-3,2.81,9.42,9.42,0,0,1-6.35.53,6.14,6.14,0,0,1-2.16-1,5.75,5.75,0,0,1-1.62-1.83,5.46,5.46,0,0,1-.65-2.75,5.26,5.26,0,0,1,1.14-3.57,6.93,6.93,0,0,1,3.06-2,17.67,17.67,0,0,1,4.38-.83c1.65-.13,3.36-.19,5.13-.19Zm-.83,2.86q-1.74,0-3.51.15a15.6,15.6,0,0,0-3.2.58,6.15,6.15,0,0,0-2.35,1.27,2.82,2.82,0,0,0-.91,2.2,3.48,3.48,0,0,0,.4,1.75,3.2,3.2,0,0,0,1,1.14,4.52,4.52,0,0,0,1.48.62,7,7,0,0,0,1.64.19,6.41,6.41,0,0,0,2.66-.52,5.63,5.63,0,0,0,2-1.41,6.26,6.26,0,0,0,1.21-2.06,7.12,7.12,0,0,0,.41-2.45v-1.46Zm-3.78-13.71h-2.45l4.15-6H550Z"/><path class="cls-1" d="M567.42,149.81h-5.49v11.34a6.41,6.41,0,0,0,.21,1.79,2.57,2.57,0,0,0,.6,1.1,2.11,2.11,0,0,0,.94.54,4.28,4.28,0,0,0,1.16.15,5,5,0,0,0,1.23-.17,6,6,0,0,0,1.22-.46l.13,2.46a9,9,0,0,1-1.56.43,9.74,9.74,0,0,1-1.77.15,7.06,7.06,0,0,1-1.66-.21,4.22,4.22,0,0,1-1.62-.79,4.31,4.31,0,0,1-1.23-1.58,6.08,6.08,0,0,1-.47-2.62V149.81h-4v-2.37h4V142h2.82v5.48h5.49Z"/><path class="cls-1" d="M575.27,140a1.86,1.86,0,0,1-.63,1.44,2,2,0,0,1-1.37.56,2,2,0,0,1-1.37-.56,1.88,1.88,0,0,1-.62-1.44,1.85,1.85,0,0,1,.62-1.43,2,2,0,0,1,1.37-.56,2,2,0,0,1,1.37.56A1.82,1.82,0,0,1,575.27,140Zm-.58,26.93h-2.83V147.44h2.83Z"/><path class="cls-1" d="M596.21,151.89a5.32,5.32,0,0,0-2.06-1.85,6,6,0,0,0-2.92-.73,7.62,7.62,0,0,0-3.08.6,7.06,7.06,0,0,0-2.35,1.66,7.23,7.23,0,0,0-1.49,2.5,9,9,0,0,0-.52,3.09,8.77,8.77,0,0,0,.52,3.08,7.31,7.31,0,0,0,1.47,2.47,6.65,6.65,0,0,0,2.33,1.66,7.41,7.41,0,0,0,3.07.61,6.5,6.5,0,0,0,3.16-.71,6.38,6.38,0,0,0,2.12-1.83l2.12,1.58a9.23,9.23,0,0,1-3.05,2.45,9.57,9.57,0,0,1-4.35.92,11.45,11.45,0,0,1-4.28-.77,9.53,9.53,0,0,1-3.26-2.14,9.84,9.84,0,0,1-2.1-3.24,11.59,11.59,0,0,1,0-8.15,9.74,9.74,0,0,1,2.1-3.24,9.53,9.53,0,0,1,3.26-2.14,11.45,11.45,0,0,1,4.28-.77,10.24,10.24,0,0,1,4,.85,7.73,7.73,0,0,1,3.26,2.52Z"/><path class="cls-1" d="M622.31,157.16a10.7,10.7,0,0,1-.77,4.08,10.11,10.11,0,0,1-2.14,3.24,9.76,9.76,0,0,1-3.29,2.14,11.7,11.7,0,0,1-8.35,0,9.71,9.71,0,0,1-3.28-2.14,10,10,0,0,1-2.14-3.24,11.17,11.17,0,0,1,0-8.15,9.84,9.84,0,0,1,2.14-3.24,9.71,9.71,0,0,1,3.28-2.14,11.7,11.7,0,0,1,8.35,0,9.76,9.76,0,0,1,3.29,2.14,10,10,0,0,1,2.14,3.24A10.69,10.69,0,0,1,622.31,157.16Zm-3,0a9,9,0,0,0-.52-3,7.39,7.39,0,0,0-1.48-2.49,7,7,0,0,0-2.33-1.69,7.89,7.89,0,0,0-6.13,0,7,7,0,0,0-2.3,1.69,7.39,7.39,0,0,0-1.48,2.49,9.23,9.23,0,0,0,0,6.11,7.49,7.49,0,0,0,1.48,2.49,6.63,6.63,0,0,0,2.3,1.66,8,8,0,0,0,6.13,0,6.65,6.65,0,0,0,2.33-1.66,7.49,7.49,0,0,0,1.48-2.49A9.06,9.06,0,0,0,619.32,157.16Z"/><path class="cls-1" d="M22.75,121,45.17,37.27H93q23.91,0,17.52,23.92l-1.61,6q-1.62,6-9.15,12,4.37,6,2.75,12l-1.62,6Q94.51,121,70.59,121Zm37.91-29.9-1.61,6H71l1.61-6Zm8-29.9-1.61,6H79l1.61-6Z"/><path class="cls-1" d="M138.39,91.09l-8,29.9h-29.9l22.43-83.72h47.83q23.92,0,17.52,23.92l-1.61,6q-4.72,17.7-19.14,22.31L172.24,121h-29.9Zm18.36-23.92,1.62-6h-12l-1.62,6Z"/><path class="cls-1" d="M200.64,37.27h59.8L254,61.19h-29.9l-1.61,6h29.9L246,91.09H216.13l-1.62,6h29.9L238,121H178.22Z"/><path class="cls-1" d="M266.42,37.27h59.79l-6.4,23.92H289.92l-1.62,6h29.9l-6.4,23.92H281.9l-1.61,6h29.9L303.79,121H244Z"/><path class="cls-1" d="M398,37.27l-6.39,23.92L352,97.07h29.9L375.54,121H309.77l6.4-23.92,39.52-35.88h-29.9l6.4-23.92Z"/><path class="cls-1" d="M403.94,37.27h59.8l-6.4,23.92h-29.9l-1.61,6h29.9l-6.4,23.92h-29.9l-1.61,6h29.9L441.31,121H381.52Z"/><path class="cls-1" d="M494.84,55.21l16.74-17.94h35.88L503.38,79.13,525,121H489.15L482,103.05,477.19,121H447.3l22.42-83.72h29.9Z"/><path class="cls-1" d="M529.4,97.07,539,61.19q6.4-23.91,30.32-23.92h23.92q23.91,0,17.52,23.92l-9.63,35.88Q594.75,121,570.84,121H546.92Q523,121,529.4,97.07Zm39.52-35.88L559.3,97.07h12l9.63-35.88Z"/><path class="cls-1" d="M607.13,97.07l9.63-35.88q6.39-23.91,30.31-23.92H671q23.93,0,17.52,23.92l-9.63,35.88Q672.49,121,648.57,121H624.65Q600.74,121,607.13,97.07Zm39.52-35.88L637,97.07h12l9.62-35.88Z"/><path class="cls-1" d="M700.89,37.27h29.9l-16,59.8h23.92L732.28,121H678.47Z"/><path class="cls-1" d="M651.07,155.15a9.38,9.38,0,1,1-9.38-9.38A9.38,9.38,0,0,1,651.07,155.15Z"/><path class="cls-1" d="M114.93,153.94a9.38,9.38,0,1,1-9.38-9.38A9.38,9.38,0,0,1,114.93,153.94Z"/></g></svg>