<svg xmlns="http://www.w3.org/2000/svg" viewBox="0 0 52.89 54.66"><defs><style>.cls-1{fill:#003e61;}</style></defs><title>iconos</title><g id="contacto"><path class="cls-1" d="M25.88,50.76C13.26,51,.82,40.35,1.65,25.61,2.31,13.91,12,3.71,24.24,3.36c15.35-.44,26.23,9.89,26,24.36C50.09,40.31,39.43,50.8,25.88,50.76ZM13.73,15.82a2.39,2.39,0,0,0-1.44,1.54,3.72,3.72,0,0,0,1.13,3.83,17.83,17.83,0,0,0,2.86,2.25c2.57,1.7,5.09,3.48,7.65,5.19a3.52,3.52,0,0,0,4-.05c3.08-2.07,6.17-4.14,9.24-6.23a5.26,5.26,0,0,0,2.4-3c.4-1.65.25-3-1.57-3.57-.29-.29-.67-.18-1-.18q-11.08,0-22.18,0C14.46,15.63,14.05,15.51,13.73,15.82ZM39.87,22.6a13.52,13.52,0,0,1-2,1.58Q33.74,27,29.6,29.8c-2,1.34-4,2-6.21.64-.52-.31-1-.63-1.53-1L12.1,22.79c0,4-.06,8,0,11.91,0,1.34.59,2.35,2.67,2.34,7.4,0,14.81,0,22.22,0a2.54,2.54,0,0,0,2.83-2.8c0-1.41,0-2.82,0-4.23Z"/></g></svg>