<svg xmlns="http://www.w3.org/2000/svg" viewBox="0 0 54.66 57.33"><defs><style>.cls-1{fill:#003e61;}</style></defs><title>iconos</title><g id="contacto"><path class="cls-1" d="M51.1,27.89v3.67a2.16,2.16,0,0,0-.16.49A24.11,24.11,0,0,1,33.48,53c-1.57.45-3.21.65-4.81,1H25a4.62,4.62,0,0,0-.71-.18A24,24,0,0,1,3.87,37.4c-.61-1.89-.88-3.89-1.3-5.84V27.89a6.31,6.31,0,0,0,.18-.72A24.14,24.14,0,0,1,20.49,6.33c1.48-.39,3-.59,4.51-.87h3.67a2.81,2.81,0,0,0,.49.16A24.11,24.11,0,0,1,50.34,23.8C50.68,25.14,50.85,26.53,51.1,27.89ZM26.81,49.19A19.47,19.47,0,1,0,7.37,29.68,19.57,19.57,0,0,0,26.81,49.19Z"/><path class="cls-1" d="M24.4,25.08c0-1.76,0-3.52,0-5.28,0-1.41.67-2.18,1.82-2.19s1.8.77,1.81,2.17c0,3.23,0,6.47,0,9.7a1.33,1.33,0,0,0,.76,1.35c2.76,1.6,5.5,3.24,8.24,4.87,1.2.71,1.57,1.71,1,2.64s-1.51,1-2.73.31c-3.11-1.85-6.19-3.74-9.32-5.57a2.88,2.88,0,0,1-1.55-2.72Z"/></g></svg>