<svg xmlns="http://www.w3.org/2000/svg" viewBox="0 0 59.55 57.33"><defs><style>.cls-1{fill:#003e61;}</style></defs><title>iconos</title><g id="contacto"><path class="cls-1" d="M55.46,27.17V29.5c0,.45-.07.9-.11,1.35A23,23,0,0,1,53.46,38a24,24,0,0,1-7.38,9.48A24.57,24.57,0,0,1,32,52.74a26.75,26.75,0,0,1-7-.51A25.46,25.46,0,0,1,14.36,47a23.85,23.85,0,0,1-6.43-8.13,22.58,22.58,0,0,1-2.28-7.82c-.06-.51-.11-1-.16-1.53V27.17a2.5,2.5,0,0,0,0-.29c.17-1.21.25-2.44.51-3.64a23.45,23.45,0,0,1,4.69-9.83,25.26,25.26,0,0,1,22.45-9.3A24.43,24.43,0,0,1,40.9,6.19,24.64,24.64,0,0,1,53.39,18.61a21.48,21.48,0,0,1,1.92,7.06ZM16.39,42.33l.39-.11c2.2-.67,4.41-1.33,6.61-2a1.26,1.26,0,0,1,1,.07A14,14,0,0,0,33,41.44a13.39,13.39,0,0,0,8.43-5,11.94,11.94,0,0,0,2.69-6.68A12.6,12.6,0,0,0,43,22.92a13.33,13.33,0,0,0-11.52-7.69,12.91,12.91,0,0,0-8.12,1.95C18.84,20,16.65,24.07,17,29.33a16.59,16.59,0,0,0,.29,2.23A13,13,0,0,0,18.67,35a.58.58,0,0,1,0,.53c-.51,1.45-1,2.91-1.51,4.36C16.92,40.69,16.67,41.47,16.39,42.33Z"/><path class="cls-1" d="M19.93,38.92c.29-.85.57-1.63.84-2.42.15-.44.3-.89.47-1.33a.45.45,0,0,0-.07-.47,10.86,10.86,0,0,1-2-5,10.48,10.48,0,0,1,2.14-7.79,11.16,11.16,0,0,1,7.27-4.37,12.25,12.25,0,0,1,2.27-.1,10.86,10.86,0,0,1,9,4.65,10.74,10.74,0,0,1-2.8,15.36A11.58,11.58,0,0,1,24.93,38a1.59,1.59,0,0,0-1.42-.16c-1.08.37-2.17.66-3.26,1Zm3.89-13.53c.07.37.1.75.2,1.12a8.93,8.93,0,0,0,1.64,2.95,12.57,12.57,0,0,0,6.76,4.84,4.79,4.79,0,0,0,2.67.24c1.78-.51,2.47-1.47,2.38-2.93a.41.41,0,0,0-.17-.29c-.91-.44-1.83-.87-2.75-1.29-.41-.19-.54-.15-.85.18s-.59.67-.9,1-.44.43-1,.2a9.43,9.43,0,0,1-4.26-3.63c-.24-.36-.23-.36.05-.7a11.38,11.38,0,0,0,.79-1,.67.67,0,0,0,.07-.55c-.4-1-.82-1.9-1.26-2.83a.55.55,0,0,0-.38-.25,9,9,0,0,0-1.16,0,.8.8,0,0,0-.42.18A3.76,3.76,0,0,0,23.82,25.39Z"/></g></svg>