<svg xmlns="http://www.w3.org/2000/svg" viewBox="0 0 115.79 248.33"><defs><style>.cls-1{fill:#fff;}</style></defs><title>imagenes</title><g id="breezekool"><path class="cls-1" d="M55.41,235.66C48.09,232.84,40,231.21,33.6,227c-25.8-17.06-28.85-52.91-7.19-75.09a11.33,11.33,0,0,0,3-7.14c.2-33,.48-65.93,0-98.88-.25-16.75,10.51-31.1,26.21-33.49.29-.05.52-.38.78-.58h9c1.54.48,3.08,1,4.63,1.44a31.1,31.1,0,0,1,22.2,30.15c0,33.78,0,67.57.13,101.35A11,11,0,0,0,95,151.55c13.66,14.5,18.31,31.34,12.16,50.26-6.07,18.72-19.45,29.76-39,33.1a8.48,8.48,0,0,0-1.8.75Zm26.5-160.1c-5.9,0-11.34,0-16.78,0-3.5,0-6.57-.69-6.65-4.83-.08-4.36,3-5.33,6.75-5.28,5.56.09,11.12,0,16.6,0V54.87H64.22c-3.23,0-5.69-1.15-5.76-4.69-.09-4,2.65-5.41,6.21-5.46,5.75-.07,11.51,0,18.16,0-1.16-4.14-1.66-7.62-3.07-10.69-4.1-8.92-13.83-13.43-23.53-11.32S39.64,33.38,39.63,44q-.08,52.73,0,105.46c0,3.14-.58,5.32-3.28,7.54a37,37,0,0,0-14.07,28.4,38.64,38.64,0,0,0,75.49,13c4.78-15.18-.2-31.11-12.86-42.09a8.56,8.56,0,0,1-2.67-5.63c-.21-16.25-.12-32.5-.12-48.75V96.35c-6.22,0-11.68,0-17.14,0-3.57,0-6.46-1.1-6.53-5.08s2.91-5,6.47-5c5.58.07,11.16,0,17,0Z"/><path class="cls-1" d="M73.82,136.56c0,5.47.24,10.95-.08,16.4-.23,4.06,1,6.5,4.51,8.93C88.33,169,92.77,179.13,91,191.22s-8.93,20.54-20.61,24.47a30.41,30.41,0,0,1-36.69-15.06,30.1,30.1,0,0,1,9.79-38.73C46.94,159.5,48.1,157,48,153q-.33-18.15,0-36.3a12.79,12.79,0,0,1,9.33-12.12c5.25-1.46,11.48.66,14.19,5.62a21.82,21.82,0,0,1,2.13,9C74.05,124.94,73.82,130.76,73.82,136.56Z"/></g></svg>