<svg xmlns="http://www.w3.org/2000/svg" viewBox="0 0 222.87 260.73"><defs><style>.cls-1{fill:#fff;}</style></defs><title>imagenes</title><g id="breezekool"><path class="cls-1" d="M79,200.47c0-4.25,0-8.49,0-12.73,0-1.1.3-1.48,1.45-1.47q32.7,0,65.41,0c1.18,0,1.44.43,1.43,1.49q0,12.65,0,25.29a7.73,7.73,0,0,1-2.65,5.81,59.79,59.79,0,0,1-18,12.51,8,8,0,0,1-3.26.71c-5.85,0-11.72-.2-17.56.06a18.21,18.21,0,0,1-9.93-2.57,64.74,64.74,0,0,1-14.68-11.18A7.24,7.24,0,0,1,79,213C79,208.84,79,204.65,79,200.47Z"/><path class="cls-1" d="M95.52,181.84c-3.82,0-7.63,0-11.44,0a2.18,2.18,0,0,1-2.29-1.3c-1.37-2.7-3.15-5.17-4.54-7.88-2.29-4.47-2.76-8.82.2-13.18a9.55,9.55,0,0,1,3-2.88c7-4.11,14.11-8.17,21.16-12.26Q121.79,132.69,142,121c2.39-1.38,4.68-3,7.62-3.24a11.4,11.4,0,0,1,7,21.2q-24.08,14-48.19,27.9c-1.62.94-3.24,1.9-4.89,2.78-.93.5-1,1-.49,1.89,1.76,2.95,3.38,6,5.18,8.9.82,1.34.36,1.41-.88,1.39-3.92-.06-7.84,0-11.76,0Z"/><path class="cls-1" d="M162.66,95.46a11.19,11.19,0,0,1-5.69,9.93c-13.86,8.07-27.77,16.06-41.65,24.08q-14.08,8.13-28.14,16.28c-4.49,2.61-9,3-13.3-.13-7.1-5.14-6.14-15.24,1.62-19.64,11.89-6.75,23.71-13.65,35.56-20.49C122.35,99,133.67,92.54,144.9,85.93c4.9-2.88,10.72-1.93,13.93,1.09A11.2,11.2,0,0,1,162.66,95.46Z"/><path class="cls-1" d="M139.41,76.75c-.2,4.25-1.93,7.65-5.67,9.83q-13.56,7.89-27.15,15.7c-3.85,2.23-7.69,4.49-11.55,6.69-6.13,3.51-13,1.94-16.27-3.7a11.48,11.48,0,0,1,4.07-15.7q19.41-11.25,38.85-22.45c7.21-4.14,15.4-.85,17.42,6.9A13.12,13.12,0,0,1,139.41,76.75Z"/><path class="cls-1" d="M117.49,181.64c2.72-4.73,5.35-9.34,8-13.91.62-1,.85-1.86,0-2.86s-.63-1.72.62-2.43c5.75-3.24,11.43-6.59,17.14-9.89.63-.36,1.21-.62,1.72.28,1.52,2.71,3.2,5.34,4.63,8.09a11.12,11.12,0,0,1-.15,11.09c-1.64,3-3.37,5.86-5,8.8a1.7,1.7,0,0,1-1.62,1.05q-12.33,0-24.65,0A3.11,3.11,0,0,1,117.49,181.64Z"/><path class="cls-1" d="M113.25,236.5c3.33,0,6.66,0,10,0,1.06,0,1.35.32,1.37,1.37.07,3.92,0,7.77-2.92,10.87-3.14,3.34-7,4.64-11.41,3.44a11,11,0,0,1-8.32-8.89,42.22,42.22,0,0,1-.27-5.62c-.06-1,.42-1.16,1.25-1.15,3.43,0,6.87,0,10.31,0Z"/><path class="cls-1" d="M195.13,168.25a3.65,3.65,0,0,1-2-.61q-10.64-6.16-21.29-12.31c-2.19-1.28-2.8-3.19-1.71-5.13,1-1.72,3.09-2.12,5.21-.89q10.72,6.16,21.42,12.39a3.45,3.45,0,0,1-1.59,6.55Z"/><path class="cls-1" d="M71,37.25a3.48,3.48,0,0,1,3.14,1.8c4.19,7.3,8.42,14.56,12.62,21.86a3.48,3.48,0,0,1-1.11,4.93,3.34,3.34,0,0,1-4.74-1.24c-1.78-2.86-3.41-5.82-5.11-8.74-2.52-4.36-5.09-8.7-7.55-13.09-1.26-2.25-.69-4.1,1.33-5.19A3.34,3.34,0,0,1,71,37.25Z"/><path class="cls-1" d="M38,168.24a3.29,3.29,0,0,1-3.47-2.48,3.39,3.39,0,0,1,1.76-4.07q8.69-5,17.39-10c1.39-.81,2.75-1.67,4.16-2.44,2.1-1.16,4.2-.69,5.17,1.1s.33,3.81-1.73,5L40,167.62A3.74,3.74,0,0,1,38,168.24Z"/><path class="cls-1" d="M37.92,70.5a3.29,3.29,0,0,1,1.83.53L61.31,83.47A3.64,3.64,0,0,1,63.4,87.3a3.33,3.33,0,0,1-2.71,2.83,3.77,3.77,0,0,1-2.91-.65Q46.91,83.26,36.06,77a3.37,3.37,0,0,1-1.56-3.87A3.26,3.26,0,0,1,37.92,70.5Z"/><path class="cls-1" d="M120,41.41c0,4.12,0,8.25,0,12.37a3.5,3.5,0,0,1-3.5,3.8A3.46,3.46,0,0,1,113,54q0-12.65,0-25.28a3.49,3.49,0,1,1,7,0c0,4.24,0,8.48,0,12.72Z"/><path class="cls-1" d="M149.51,66.33a3.54,3.54,0,0,1-3.22-5.54q4.53-7.89,9.1-15.73c1.12-2,2.24-3.91,3.4-5.83s3.12-2.54,5.06-1.43a3.58,3.58,0,0,1,1,5c-1.32,2.33-2.69,4.64-4,6.95-2.83,4.87-5.67,9.73-8.48,14.6A3.72,3.72,0,0,1,149.51,66.33Z"/><path class="cls-1" d="M198.68,74a3.43,3.43,0,0,1-2,3.08L175.45,89.43c-1.56.9-3.17,1.15-4.69,0-1.22-.89-1.23-2.27-1.15-3.66a3.15,3.15,0,0,1,2-2.56c4.69-2.12,8.91-5.05,13.4-7.51,2.82-1.54,5.54-3.25,8.38-4.76A3.44,3.44,0,0,1,198.68,74Z"/><path class="cls-1" d="M194.58,122.88c-4,0-8,0-11.92,0-1.7,0-3.2-.29-4-2.06A3.41,3.41,0,0,1,181.3,116a4.6,4.6,0,0,1,.64,0c8.49,0,17,0,25.45,0a3.39,3.39,0,0,1,2.89,5.28,3.2,3.2,0,0,1-3,1.58c-4.24,0-8.48,0-12.72,0Z"/><path class="cls-1" d="M38.5,122.83H25.79a3.3,3.3,0,0,1-3.37-2.24,3.44,3.44,0,0,1,.8-3.72,3.15,3.15,0,0,1,2.49-.92c8.53,0,17.06,0,25.59,0a3.42,3.42,0,0,1-.09,6.84C47,122.88,42.74,122.83,38.5,122.83Z"/></g></svg>